<?xml version="1.0" encoding="utf-8"?>
<!-- Svg Vector Icons : http://www.onlinewebfonts.com/icon -->
<!DOCTYPE svg PUBLIC "-//W3C//DTD SVG 1.1//EN" "http://www.w3.org/Graphics/SVG/1.1/DTD/svg11.dtd">
<svg version="1.1" xmlns="http://www.w3.org/2000/svg" xmlns:xlink="http://www.w3.org/1999/xlink" x="0px" y="0px" viewBox="0 0 1000 1000" enable-background="new 0 0 1000 1000" xml:space="preserve">
<metadata> Svg Vector Icons : http://www.onlinewebfonts.com/icon </metadata>
<g><g transform="translate(0.000000,511.000000) scale(0.100000,-0.100000)"><path d="M641.9,2136c-312.3-334.8-496-702.2-532.7-1077.7c-32.7-318.4,20.4-577.7,181.7-908.3C425.6-123.6,552.1-291,858.3-597.1c408.2-406.2,814.4-689.9,1420.7-987.9c579.7-285.8,983.8-414.4,1361.5-432.7c253.1-14.3,363.3,10.2,469.5,95.9c81.6,67.4,189.8,265.4,271.5,489.9c85.7,240.8,173.5,406.2,283.7,524.6c124.5,138.8,234.7,195.9,369.4,195.9c259.2,0,485.8-249,653.2-720.5c128.6-359.2,251.1-522.5,432.7-571.5c132.7-38.8,502.1-14.3,740.9,49c987.9,257.2,2039.1,902.2,2561.7,1573.7c530.7,681.7,618.5,1371.7,263.3,2082c-100,200-312.3,510.3-347,510.3c-12.3,0-61.2-49-108.2-108.2c-281.7-357.2-892-661.4-1563.5-783.8l-265.4-46.9H5044.8H2687.2l-261.3,46.9c-692,124.5-1290,428.6-1579.9,800.2c-51,67.4-95.9,122.5-98,122.5C746,2242.1,699.1,2193.1,641.9,2136z M2738.2,321.4c616.4-75.5,1167.6-304.1,1257.4-520.5c40.8-98,34.7-247-14.3-408.2c-34.7-114.3-63.3-157.2-159.2-255.2c-98-95.9-140.8-124.5-255.1-159.2c-306.2-93.9-643-38.8-969.6,163.3c-183.7,114.3-520.5,422.5-702.2,647.1c-165.3,202.1-342.9,455.2-330.7,473.5c4.1,8.2,89.8,24.5,187.8,38.8c98,12.2,202.1,26.5,230.6,30.6C2099.3,347.9,2579,341.8,2738.2,321.4z M8412.7,303c83.7-14.3,161.3-32.7,169.4-40.8c16.3-14.3-147-253.1-326.6-473.5c-181.7-224.5-518.4-532.7-702.2-647.1c-95.9-59.2-244.9-128.6-340.9-159.2c-149-44.9-193.9-51-377.6-42.9c-244.9,10.2-351.1,51-491.9,179.6c-51,46.9-116.3,136.8-144.9,198c-63.3,132.7-87.8,351.1-53.1,461.3c73.5,222.5,610.3,455.2,1247.2,545C7569.7,347.9,8220.8,333.6,8412.7,303z"/></g></g>
</svg>